<svg xmlns="http://www.w3.org/2000/svg" xmlns:xlink="http://www.w3.org/1999/xlink" id="Capa_2" x="0px" y="0px" viewBox="0 0 244.4 20" style="enable-background:new 0 0 244.4 20;" xml:space="preserve"> <style type="text/css"> .st0{fill:#EC607E;} .st1{fill:#FFFFFF;} </style> <symbol id="Logo_petit_negatiu" viewBox="-122.2 -10 244.4 20"> <path class="st0" d="M56.6-5.3C57-5.4,57.3-5.7,57.5-6c0.2-0.3,0.3-0.8,0.3-1.2s-0.1-0.9-0.3-1.2c-0.2-0.3-0.5-0.6-0.9-0.8 c-0.4-0.2-0.8-0.3-1.4-0.3h-2.8v7.1h1.5V-5H55l1.4,2.5h1.7L56.6-5.3C56.5-5.2,56.6-5.2,56.6-5.3L56.6-5.3z M53.9-8.4h1 c0.3,0,0.5,0,0.7,0.1C55.9-8.2,56-8,56.1-7.9c0.1,0.2,0.1,0.4,0.1,0.6s-0.1,0.4-0.1,0.6s-0.2,0.3-0.4,0.4c-0.2,0.1-0.4,0.1-0.7,0.1 h-1V-8.4z"></path> <path class="st0" d="M62.9-7.5c-0.2-0.2-0.5-0.2-0.7-0.3c-0.3-0.1-0.6-0.1-0.9-0.1c-0.4,0-0.8,0.1-1.1,0.2 c-0.3,0.1-0.6,0.3-0.8,0.5c-0.2,0.2-0.3,0.5-0.4,0.9l1.4,0.1c0.1-0.2,0.2-0.3,0.3-0.4c0.2-0.1,0.4-0.2,0.6-0.2 c0.2,0,0.4,0.1,0.6,0.2c0.1,0.1,0.2,0.3,0.2,0.5v0c0,0.1,0,0.2-0.1,0.3c-0.1,0.1-0.2,0.1-0.4,0.1s-0.4,0.1-0.8,0.1 c-0.3,0-0.5,0.1-0.8,0.1c-0.2,0.1-0.4,0.2-0.6,0.3c-0.2,0.1-0.3,0.3-0.4,0.5c-0.1,0.2-0.2,0.4-0.2,0.8c0,0.3,0.1,0.7,0.2,0.9 c0.1,0.2,0.4,0.4,0.6,0.5c0.3,0.1,0.6,0.2,0.9,0.2c0.3,0,0.5,0,0.7-0.1s0.4-0.2,0.5-0.3s0.3-0.3,0.3-0.4h0v0.7h1.4v-3.6 c0-0.3-0.1-0.6-0.2-0.8S63.2-7.3,62.9-7.5L62.9-7.5z M62.2-4.4c0,0.2-0.1,0.4-0.1,0.5c-0.1,0.2-0.2,0.3-0.4,0.3 c-0.2,0.1-0.4,0.1-0.6,0.1s-0.4-0.1-0.6-0.2c-0.1-0.1-0.2-0.3-0.2-0.5c0-0.1,0-0.3,0.1-0.3s0.2-0.2,0.3-0.2 c0.1-0.1,0.3-0.1,0.5-0.1c0.1,0,0.2,0,0.3,0s0.2,0,0.3-0.1s0.2,0,0.3-0.1c0.1,0,0.1-0.1,0.2-0.1L62.2-4.4L62.2-4.4z"></path> <path class="st0" d="M67.8-7.9c-0.3,0-0.6,0.1-0.8,0.3s-0.4,0.4-0.5,0.8h-0.1v-0.9H65v5.4h1.5v-3c0-0.2,0.1-0.4,0.1-0.6 c0.1-0.2,0.2-0.3,0.4-0.4s0.4-0.1,0.6-0.1c0.1,0,0.2,0,0.3,0c0.1,0,0.2,0,0.3,0.1v-1.3c-0.1,0-0.1,0-0.2,0 C68-7.9,67.9-7.9,67.8-7.9L67.8-7.9z"></path> <path class="st0" d="M73.2-7.2c-0.2-0.2-0.5-0.4-0.8-0.5c-0.3-0.1-0.6-0.2-1-0.2c-0.5,0-1,0.1-1.4,0.3s-0.7,0.6-0.9,1 c-0.2,0.4-0.3,0.9-0.3,1.5s0.1,1,0.3,1.5c0.2,0.4,0.5,0.7,0.9,1c0.4,0.2,0.9,0.3,1.4,0.3c0.4,0,0.8-0.1,1.2-0.2 c0.3-0.1,0.6-0.3,0.8-0.6c0.2-0.2,0.4-0.5,0.4-0.9l-1.4-0.1c-0.1,0.1-0.1,0.2-0.2,0.3c-0.1,0.1-0.2,0.2-0.4,0.2s-0.3,0.1-0.4,0.1 c-0.2,0-0.5-0.1-0.6-0.2c-0.2-0.1-0.3-0.2-0.4-0.4c-0.1-0.2-0.1-0.4-0.1-0.7l0,0H74v-0.4c0-0.5-0.1-0.8-0.2-1.2 C73.6-6.7,73.5-7,73.2-7.2L73.2-7.2z M70.3-5.7c0-0.2,0.1-0.4,0.1-0.5c0.1-0.2,0.2-0.3,0.4-0.4c0.2-0.1,0.4-0.2,0.6-0.2 s0.4,0.1,0.6,0.1c0.2,0.1,0.3,0.2,0.4,0.4c0.1,0.2,0.1,0.3,0.1,0.6L70.3-5.7L70.3-5.7z"></path> <path class="st0" d="M82.1-9.2c-0.5-0.3-1.1-0.4-1.9-0.4h-2.6v7.1h2.5c0.7,0,1.4-0.1,1.9-0.4c0.5-0.3,0.9-0.7,1.2-1.2 s0.4-1.2,0.4-1.9S83.6-7.4,83.3-8S82.6-8.9,82.1-9.2L82.1-9.2z M82-4.7c-0.1,0.3-0.4,0.6-0.7,0.7c-0.3,0.2-0.7,0.2-1.1,0.2h-1v-4.6 h1c0.4,0,0.8,0.1,1.1,0.2c0.3,0.2,0.5,0.4,0.7,0.7C82.1-7,82.2-6.6,82.2-6C82.2-5.5,82.1-5.1,82-4.7z"></path> <rect x="85.1" y="-7.8" class="st0" width="1.5" height="5.3"></rect> <path class="st0" d="M85.8-10c-0.2,0-0.4,0.1-0.6,0.2C85.1-9.6,85-9.5,85-9.3s0.1,0.4,0.2,0.5c0.2,0.2,0.4,0.2,0.6,0.2 s0.4-0.1,0.6-0.2c0.2-0.1,0.2-0.3,0.2-0.5s-0.1-0.4-0.2-0.5C86.2-9.9,86-10,85.8-10z"></path> <path class="st0" d="M91-5.6l-1-0.2c-0.2-0.1-0.4-0.1-0.5-0.2c-0.1-0.1-0.1-0.2-0.1-0.3c0-0.2,0.1-0.3,0.2-0.4s0.4-0.1,0.6-0.1 c0.2,0,0.3,0,0.4,0.1s0.2,0.1,0.3,0.2C91-6.4,91-6.3,91.1-6.2l1.4-0.1c-0.1-0.5-0.3-0.9-0.7-1.2s-0.9-0.4-1.6-0.4 c-0.5,0-0.9,0.1-1.2,0.2s-0.6,0.3-0.8,0.6c-0.2,0.2-0.3,0.5-0.3,0.9c0,0.4,0.1,0.7,0.4,1s0.6,0.4,1.2,0.5l0.9,0.2 c0.2,0.1,0.4,0.1,0.5,0.2C91-4.2,91-4.1,91-4c0,0.2-0.1,0.3-0.2,0.4s-0.4,0.2-0.6,0.2s-0.5-0.1-0.6-0.2s-0.3-0.3-0.3-0.5L87.7-4 c0.1,0.5,0.3,0.9,0.7,1.2c0.4,0.3,1,0.4,1.7,0.4c0.5,0,0.9-0.1,1.2-0.2c0.4-0.2,0.6-0.3,0.8-0.6c0.2-0.3,0.3-0.6,0.3-0.9 c0-0.4-0.1-0.7-0.4-0.9C91.9-5.3,91.5-5.5,91-5.6L91-5.6z"></path> <path class="st0" d="M97.9-7.2c-0.2-0.2-0.5-0.4-0.8-0.5c-0.3-0.1-0.6-0.2-1-0.2c-0.5,0-1,0.1-1.4,0.3S94-7,93.8-6.6 c-0.2,0.4-0.3,0.9-0.3,1.5s0.1,1,0.3,1.5c0.2,0.4,0.5,0.7,0.9,1c0.4,0.2,0.9,0.3,1.4,0.3c0.4,0,0.8-0.1,1.2-0.2 c0.3-0.1,0.6-0.3,0.8-0.6c0.2-0.2,0.4-0.5,0.4-0.9l-1.4-0.1c-0.1,0.1-0.1,0.2-0.2,0.3c-0.1,0.1-0.2,0.2-0.4,0.2 c-0.1,0.1-0.3,0.1-0.4,0.1c-0.2,0-0.5-0.1-0.6-0.2c-0.2-0.1-0.3-0.2-0.4-0.4C95-4.2,95-4.5,95-4.7l0,0h3.6v-0.4 c0-0.5-0.1-0.8-0.2-1.2C98.3-6.7,98.1-7,97.9-7.2L97.9-7.2z M95-5.7C95-5.9,95-6,95.1-6.2c0.1-0.2,0.2-0.3,0.4-0.4s0.4-0.2,0.6-0.2 s0.4,0.1,0.6,0.1c0.2,0.1,0.3,0.2,0.4,0.4c0.1,0.2,0.1,0.3,0.1,0.6L95-5.7L95-5.7z"></path> <path class="st0" d="M103.7-7.5c-0.2-0.2-0.5-0.2-0.7-0.3c-0.3-0.1-0.6-0.1-0.9-0.1c-0.4,0-0.8,0.1-1.1,0.2 c-0.3,0.1-0.6,0.3-0.8,0.5c-0.2,0.2-0.3,0.5-0.4,0.9l1.4,0.1c0.1-0.2,0.2-0.3,0.3-0.4c0.2-0.1,0.4-0.2,0.6-0.2 c0.2,0,0.4,0.1,0.6,0.2c0.1,0.1,0.2,0.3,0.2,0.5v0c0,0.1,0,0.2-0.1,0.3c-0.1,0.1-0.2,0.1-0.4,0.1s-0.4,0.1-0.8,0.1 c-0.3,0-0.5,0.1-0.8,0.1c-0.2,0.1-0.4,0.2-0.6,0.3c-0.2,0.1-0.3,0.3-0.4,0.5c-0.1,0.2-0.2,0.4-0.2,0.8c0,0.3,0.1,0.7,0.2,0.9 c0.1,0.2,0.4,0.4,0.6,0.5c0.3,0.1,0.6,0.2,0.9,0.2c0.3,0,0.5,0,0.7-0.1s0.4-0.2,0.5-0.3s0.3-0.3,0.4-0.4h0v0.7h1.4v-3.6 c0-0.3-0.1-0.6-0.2-0.8C104.1-7.1,103.9-7.3,103.7-7.5L103.7-7.5z M102.9-4.4c0,0.2-0.1,0.4-0.1,0.5c-0.1,0.2-0.2,0.3-0.4,0.3 c-0.2,0.1-0.4,0.1-0.6,0.1s-0.4-0.1-0.6-0.2C101.1-3.7,101-3.8,101-4c0-0.1,0-0.3,0.1-0.3s0.2-0.2,0.3-0.2c0.1-0.1,0.3-0.1,0.5-0.1 c0.1,0,0.2,0,0.3,0s0.2,0,0.3-0.1s0.2,0,0.3-0.1c0.1,0,0.1-0.1,0.2-0.1L102.9-4.4L102.9-4.4z"></path> <path class="st0" d="M108.8-5.6l-1-0.2c-0.2-0.1-0.4-0.1-0.5-0.2c-0.1-0.1-0.1-0.2-0.1-0.3c0-0.2,0.1-0.3,0.2-0.4s0.4-0.1,0.6-0.1 c0.2,0,0.3,0,0.4,0.1s0.2,0.1,0.3,0.2c0.1,0.1,0.1,0.2,0.1,0.3l1.4-0.1c-0.1-0.5-0.3-0.9-0.7-1.2s-0.9-0.4-1.6-0.4 c-0.5,0-0.9,0.1-1.2,0.2s-0.6,0.3-0.8,0.6c-0.2,0.2-0.3,0.5-0.3,0.9c0,0.4,0.1,0.7,0.4,1s0.6,0.4,1.2,0.5l0.9,0.2 c0.2,0.1,0.4,0.1,0.5,0.2c0.1,0.1,0.2,0.2,0.2,0.3c0,0.2-0.1,0.3-0.2,0.4s-0.4,0.2-0.6,0.2s-0.5-0.1-0.6-0.2S107-3.9,107-4.1 L105.5-4c0.1,0.5,0.3,0.9,0.7,1.2c0.4,0.3,1,0.4,1.7,0.4c0.5,0,0.9-0.1,1.2-0.2c0.4-0.2,0.6-0.3,0.8-0.6c0.2-0.3,0.3-0.6,0.3-0.9 c0-0.4-0.1-0.7-0.4-0.9C109.7-5.3,109.3-5.5,108.8-5.6L108.8-5.6z"></path> <path class="st0" d="M115.7-7.2c-0.2-0.2-0.5-0.4-0.8-0.5c-0.3-0.1-0.6-0.2-1-0.2c-0.5,0-1,0.1-1.4,0.3s-0.7,0.6-0.9,1 c-0.2,0.4-0.3,0.9-0.3,1.5s0.1,1,0.3,1.5c0.2,0.4,0.5,0.7,0.9,1c0.4,0.2,0.9,0.3,1.4,0.3c0.4,0,0.8-0.1,1.2-0.2 c0.3-0.1,0.6-0.3,0.8-0.6c0.2-0.2,0.4-0.5,0.4-0.9L115-4.1c-0.1,0.1-0.1,0.2-0.2,0.3c-0.1,0.1-0.2,0.2-0.4,0.2 c-0.1,0.1-0.3,0.1-0.4,0.1c-0.2,0-0.5-0.1-0.6-0.2c-0.2-0.1-0.3-0.2-0.4-0.4c-0.1-0.2-0.1-0.4-0.1-0.7l0,0h3.6v-0.4 c0-0.5-0.1-0.8-0.2-1.2C116.1-6.7,116-7,115.7-7.2L115.7-7.2z M112.8-5.7c0-0.2,0.1-0.4,0.1-0.5c0.1-0.2,0.2-0.3,0.4-0.4 c0.2-0.1,0.4-0.2,0.6-0.2s0.4,0.1,0.6,0.1c0.2,0.1,0.3,0.2,0.4,0.4c0.1,0.2,0.1,0.3,0.1,0.6L112.8-5.7L112.8-5.7z"></path> <path class="st0" d="M121.8-5.1c-0.3-0.2-0.6-0.4-1.2-0.5l-1-0.2c-0.2-0.1-0.4-0.1-0.5-0.2c-0.1-0.1-0.1-0.2-0.1-0.3 c0-0.2,0.1-0.3,0.2-0.4s0.4-0.1,0.6-0.1c0.2,0,0.3,0,0.4,0.1s0.2,0.1,0.3,0.2c0.1,0.1,0.1,0.2,0.1,0.3l1.4-0.1 c-0.1-0.5-0.3-0.9-0.7-1.2s-0.9-0.4-1.6-0.4c-0.5,0-0.9,0.1-1.2,0.2s-0.6,0.3-0.8,0.6c-0.2,0.2-0.3,0.5-0.3,0.9 c0,0.4,0.1,0.7,0.4,1s0.6,0.4,1.2,0.5l0.9,0.2c0.2,0.1,0.4,0.1,0.5,0.2c0.1,0.1,0.2,0.2,0.2,0.3c0,0.2-0.1,0.3-0.2,0.4 s-0.4,0.2-0.6,0.2s-0.5-0.1-0.6-0.2s-0.3-0.3-0.3-0.5L117.4-4c0.1,0.5,0.3,0.9,0.7,1.2c0.4,0.3,1,0.4,1.7,0.4 c0.5,0,0.9-0.1,1.2-0.2c0.4-0.2,0.6-0.3,0.8-0.6c0.2-0.3,0.3-0.6,0.3-0.9C122.2-4.5,122.1-4.8,121.8-5.1L121.8-5.1z"></path> <polygon class="st1" points="7.8,-3.4 4.4,-3.4 4.4,-5.6 7.5,-5.6 7.5,-6.5 4.4,-6.5 4.4,-8.7 7.8,-8.7 7.8,-9.6 3.3,-9.6 3.3,-2.5 7.8,-2.5 "></polygon> <path class="st1" d="M10.2-2.6c0.3,0.2,0.6,0.2,0.9,0.2c0.4,0,0.7-0.1,1-0.3c0.3-0.2,0.5-0.4,0.6-0.7h0.1v0.9h1v-5.4h-1.1v3.1 c0,0.3-0.1,0.6-0.2,0.8c-0.1,0.2-0.3,0.3-0.5,0.4s-0.4,0.2-0.6,0.2c-0.3,0-0.6-0.1-0.8-0.3c-0.2-0.2-0.3-0.5-0.3-0.9v-3.3h-1v3.4 c0,0.4,0.1,0.8,0.2,1.1C9.7-3,10-2.8,10.2-2.6z"></path> <path class="st1" d="M16.5-5.7c0-0.2,0.1-0.4,0.2-0.6s0.3-0.3,0.4-0.4c0.2-0.1,0.4-0.2,0.7-0.2c0.1,0,0.2,0,0.3,0 c0.1,0,0.2,0,0.2,0v-1c-0.1,0-0.1,0-0.2,0c-0.1,0-0.2,0-0.2,0c-0.3,0-0.6,0.1-0.8,0.2S16.6-7.2,16.5-7h-0.1v-0.8h-1v5.3h1L16.5-5.7 L16.5-5.7z"></path> <path class="st1" d="M22.8-2.7c0.4-0.2,0.7-0.6,0.9-1C23.9-4.1,24-4.6,24-5.1s-0.1-1-0.3-1.5c-0.2-0.4-0.5-0.7-0.9-1 c-0.4-0.2-0.8-0.3-1.3-0.3s-0.9,0.1-1.3,0.3c-0.4,0.2-0.7,0.6-0.9,1C19.1-6.1,19-5.7,19-5.1s0.1,1,0.3,1.4c0.2,0.4,0.5,0.7,0.9,1 s0.8,0.3,1.3,0.3S22.5-2.5,22.8-2.7z M20.2-4.2c-0.1-0.3-0.1-0.6-0.1-0.9s0.1-0.7,0.1-0.9c0.1-0.3,0.3-0.5,0.5-0.7 C20.9-6.9,21.2-7,21.5-7s0.6,0.1,0.8,0.3c0.2,0.2,0.4,0.4,0.5,0.7C22.9-5.8,23-5.5,23-5.1s-0.1,0.7-0.2,0.9 c-0.1,0.3-0.3,0.5-0.5,0.7c-0.2,0.2-0.5,0.3-0.8,0.3s-0.6-0.1-0.8-0.3C20.5-3.7,20.3-3.9,20.2-4.2z"></path> <path class="st1" d="M28.1-2.4c0.4,0,0.8-0.1,1.1-0.3c0.3-0.2,0.6-0.5,0.8-0.9c0.2-0.4,0.3-0.9,0.3-1.5S30.2-6.2,30-6.6 c-0.2-0.4-0.5-0.7-0.8-0.9c-0.3-0.2-0.7-0.3-1.2-0.3c-0.3,0-0.6,0.1-0.8,0.2c-0.2,0.1-0.4,0.2-0.5,0.4S26.6-7,26.5-6.9h-0.1v-0.9 h-1v7.4h1v-2.8h0.1c0.1,0.1,0.1,0.2,0.3,0.4c0.1,0.2,0.3,0.3,0.5,0.4C27.5-2.4,27.7-2.3,28.1-2.4L28.1-2.4z M26.6-4.1 c-0.1-0.3-0.2-0.6-0.2-1s0.1-0.7,0.2-1s0.3-0.5,0.5-0.7C27.3-6.9,27.5-7,27.8-7s0.6,0.1,0.8,0.2c0.2,0.2,0.4,0.4,0.5,0.7 c0.1,0.3,0.2,0.6,0.2,0.9s-0.1,0.7-0.2,1c-0.1,0.3-0.3,0.5-0.5,0.7c-0.2,0.2-0.5,0.2-0.8,0.2s-0.6-0.1-0.8-0.2 C26.9-3.6,26.7-3.9,26.6-4.1L26.6-4.1z"></path> <path class="st1" d="M35.6-7.3c-0.2-0.2-0.5-0.4-0.8-0.5S34.3-7.9,34-7.9c-0.5,0-0.9,0.1-1.3,0.3c-0.4,0.2-0.7,0.6-0.9,1 c-0.2,0.4-0.3,0.9-0.3,1.4s0.1,1,0.3,1.4c0.2,0.4,0.5,0.7,0.9,1s0.8,0.3,1.4,0.3c0.4,0,0.7-0.1,1-0.2c0.3-0.1,0.6-0.3,0.8-0.5 s0.3-0.5,0.4-0.8l-1-0.2c-0.1,0.2-0.1,0.3-0.3,0.4c-0.1,0.1-0.3,0.2-0.4,0.3S34.2-3.2,34-3.2c-0.3,0-0.6-0.1-0.8-0.2 C33-3.6,32.8-3.7,32.7-4c-0.1-0.2-0.2-0.5-0.2-0.8h3.8v-0.4c0-0.5-0.1-0.9-0.2-1.2C36-6.8,35.8-7.1,35.6-7.3L35.6-7.3z M32.5-5.6 c0-0.2,0.1-0.5,0.2-0.7c0.1-0.2,0.3-0.4,0.5-0.6S33.7-7,34-7c0.3,0,0.5,0.1,0.7,0.2c0.2,0.1,0.4,0.3,0.5,0.5s0.2,0.5,0.2,0.7 L32.5-5.6L32.5-5.6z"></path> <path class="st1" d="M41.2-7.5c-0.2-0.1-0.4-0.2-0.7-0.3c-0.2,0-0.5-0.1-0.7-0.1c-0.3,0-0.6,0.1-0.9,0.1s-0.6,0.2-0.8,0.4 c-0.2,0.2-0.4,0.5-0.5,0.8l1,0.2c0.1-0.2,0.2-0.4,0.4-0.5S39.5-7,39.9-7s0.6,0.1,0.8,0.2s0.3,0.4,0.3,0.7v0c0,0.1-0.1,0.2-0.1,0.3 c-0.1,0.1-0.2,0.1-0.4,0.1s-0.5,0.1-0.8,0.1c-0.2,0-0.5,0.1-0.8,0.1c-0.2,0.1-0.5,0.1-0.7,0.3c-0.2,0.1-0.4,0.3-0.5,0.5 c-0.1,0.2-0.2,0.4-0.2,0.8c0,0.3,0.1,0.7,0.2,0.9s0.4,0.4,0.6,0.6c0.3,0.1,0.6,0.2,0.9,0.2c0.3,0,0.6,0,0.8-0.1 c0.2-0.1,0.4-0.2,0.5-0.3c0.1-0.1,0.2-0.3,0.3-0.4h0v0.7h1V-6c0-0.4-0.1-0.7-0.2-1C41.6-7.2,41.4-7.4,41.2-7.5z M40.9-4.4 c0,0.2-0.1,0.4-0.2,0.6c-0.1,0.2-0.3,0.3-0.5,0.4c-0.2,0.1-0.4,0.2-0.7,0.2S39-3.3,38.8-3.4c-0.2-0.1-0.3-0.3-0.3-0.6 c0-0.2,0.1-0.3,0.1-0.4c0.1-0.1,0.2-0.2,0.4-0.3s0.4-0.1,0.6-0.1c0.1,0,0.2,0,0.3,0c0.1,0,0.3,0,0.4-0.1S40.6-5,40.7-5 c0.1,0,0.2-0.1,0.2-0.1L40.9-4.4L40.9-4.4z"></path> <path class="st1" d="M47.2-7.7c-0.3-0.2-0.6-0.2-1-0.2c-0.4,0-0.7,0.1-1,0.3c-0.3,0.2-0.5,0.4-0.6,0.7h-0.1v-0.9h-1v5.3h1v-3.2 c0-0.3,0.1-0.5,0.2-0.7s0.3-0.3,0.4-0.5C45.4-6.9,45.6-7,45.8-7c0.4,0,0.6,0.1,0.8,0.3C46.9-6.4,47-6.1,47-5.8v3.3h1v-3.4 c0-0.4-0.1-0.8-0.2-1.1S47.4-7.5,47.2-7.7L47.2-7.7z"></path> <path class="st1" d="M7.2,6.9C7.6,6.7,7.8,6.5,8,6.1C8.2,5.8,8.3,5.4,8.3,5S8.2,4.2,8,3.8C7.8,3.5,7.6,3.2,7.2,3 C6.8,2.8,6.4,2.7,5.8,2.7H3.3v7.1h1.1V7.2h1.5c0,0,0,0,0.1,0l1.4,2.7h1.2L7,7C7.1,7,7.1,6.9,7.2,6.9L7.2,6.9z M4.4,3.7h1.3 c0.4,0,0.6,0.1,0.9,0.2C6.8,3.9,7,4.1,7.1,4.3C7.2,4.5,7.2,4.7,7.2,5S7.2,5.5,7.1,5.7C7,5.9,6.8,6,6.6,6.1S6.1,6.3,5.7,6.3H4.4V3.7 L4.4,3.7z"></path> <path class="st1" d="M13.6,5.1c-0.2-0.2-0.5-0.4-0.8-0.5s-0.6-0.1-0.9-0.1c-0.5,0-0.9,0.1-1.3,0.4C10.3,5,10,5.4,9.8,5.8 C9.6,6.2,9.5,6.7,9.5,7.2s0.1,1,0.3,1.5c0.2,0.4,0.5,0.7,0.9,1S11.5,10,12,10c0.4,0,0.7-0.1,1-0.2c0.3-0.1,0.6-0.3,0.8-0.5 s0.3-0.5,0.4-0.8l-1-0.2c-0.1,0.2-0.1,0.3-0.3,0.4S12.7,9,12.6,9S12.2,9.1,12,9.1c-0.3,0-0.6-0.1-0.8-0.2c-0.2-0.1-0.4-0.3-0.5-0.6 c-0.1-0.2-0.2-0.5-0.2-0.8h3.8V7.1c0-0.5-0.1-0.9-0.2-1.2C14,5.6,13.8,5.3,13.6,5.1L13.6,5.1z M10.5,6.7c0-0.2,0.1-0.5,0.2-0.6 c0.1-0.2,0.3-0.4,0.5-0.6s0.5-0.2,0.8-0.2c0.3,0,0.5,0.1,0.7,0.2C12.9,5.6,13,5.8,13.1,6c0.1,0.2,0.2,0.5,0.2,0.7L10.5,6.7 L10.5,6.7z"></path> <path class="st1" d="M18.4,6.9l-0.9-0.2c-0.3-0.1-0.5-0.2-0.6-0.3S16.7,6.2,16.7,6c0-0.2,0.1-0.4,0.3-0.5s0.4-0.2,0.7-0.2 c0.2,0,0.4,0,0.5,0.1c0.1,0.1,0.3,0.2,0.3,0.3c0.1,0.1,0.1,0.2,0.2,0.3l0.9-0.2c-0.1-0.4-0.3-0.8-0.7-1s-0.8-0.4-1.4-0.4 c-0.4,0-0.8,0.1-1.1,0.2c-0.3,0.1-0.6,0.3-0.7,0.6c-0.2,0.2-0.3,0.5-0.3,0.8c0,0.4,0.1,0.7,0.4,0.9c0.2,0.2,0.6,0.4,1.1,0.5L18,7.7 c0.3,0.1,0.4,0.1,0.6,0.3c0.1,0.1,0.2,0.2,0.2,0.4c0,0.2-0.1,0.4-0.3,0.5c-0.2,0.1-0.5,0.2-0.8,0.2c-0.3,0-0.6-0.1-0.8-0.2 c-0.2-0.1-0.3-0.3-0.4-0.6l-1,0.1c0.1,0.5,0.3,0.8,0.7,1.1c0.4,0.3,0.9,0.4,1.5,0.4c0.4,0,0.8-0.1,1.1-0.2s0.6-0.3,0.8-0.6 c0.2-0.2,0.3-0.5,0.3-0.9c0-0.4-0.1-0.7-0.4-0.9S18.9,7,18.4,6.9L18.4,6.9z"></path> <path class="st1" d="M25.1,5.1c-0.2-0.2-0.5-0.4-0.8-0.5s-0.6-0.1-0.9-0.1c-0.5,0-0.9,0.1-1.3,0.4c-0.4,0.2-0.7,0.6-0.9,1 C21.1,6.2,21,6.7,21,7.2s0.1,1,0.3,1.5c0.2,0.4,0.5,0.7,0.9,1S23,10,23.5,10c0.4,0,0.7-0.1,1-0.2c0.3-0.1,0.6-0.3,0.8-0.5 s0.3-0.5,0.4-0.8l-1-0.2c-0.1,0.2-0.1,0.3-0.3,0.4C24.4,8.9,24.2,9,24.1,9s-0.3,0.1-0.5,0.1c-0.3,0-0.6-0.1-0.8-0.2 c-0.2-0.1-0.4-0.3-0.5-0.6C22.1,8.1,22,7.8,22,7.5h3.8V7.1c0-0.5-0.1-0.9-0.2-1.2C25.5,5.6,25.3,5.3,25.1,5.1L25.1,5.1z M22,6.7 c0-0.2,0.1-0.5,0.2-0.6c0.1-0.2,0.3-0.4,0.5-0.6s0.5-0.2,0.8-0.2c0.3,0,0.5,0.1,0.7,0.2c0.2,0.1,0.4,0.3,0.5,0.5 c0.1,0.2,0.2,0.5,0.2,0.7L22,6.7L22,6.7z"></path> <path class="st1" d="M30.7,4.8c-0.2-0.1-0.4-0.2-0.7-0.3c-0.2-0.1-0.5-0.1-0.7-0.1c-0.3,0-0.6,0.1-0.9,0.1S27.9,4.8,27.7,5 s-0.4,0.5-0.5,0.8l1,0.2c0.1-0.2,0.2-0.4,0.4-0.5c0.2-0.1,0.5-0.2,0.8-0.2s0.6,0.1,0.8,0.2s0.3,0.4,0.3,0.7v0c0,0.1,0,0.2-0.1,0.3 c-0.1,0.1-0.2,0.1-0.4,0.1s-0.5,0-0.8,0.1c-0.2,0-0.5,0.1-0.8,0.1c-0.2,0.1-0.5,0.1-0.7,0.3c-0.2,0.1-0.4,0.3-0.5,0.5 C27,7.8,27,8.1,27,8.4c0,0.4,0.1,0.6,0.2,0.9s0.4,0.4,0.6,0.5c0.3,0.1,0.6,0.2,0.9,0.2c0.3,0,0.6,0,0.8-0.1 c0.2-0.1,0.4-0.2,0.5-0.3c0.1-0.1,0.2-0.3,0.3-0.4h0v0.7h1V6.3c0-0.4-0.1-0.7-0.2-0.9C31.1,5.1,30.9,4.9,30.7,4.8L30.7,4.8z M30.4,7.9c0,0.2-0.1,0.4-0.2,0.6S30,8.9,29.8,9c-0.2,0.1-0.4,0.2-0.7,0.2S28.5,9.1,28.3,9C28.1,8.8,28,8.6,28,8.4 c0-0.2,0.1-0.3,0.1-0.5s0.2-0.2,0.4-0.3s0.4-0.1,0.6-0.1c0.1,0,0.2,0,0.3,0c0.1,0,0.3,0,0.4-0.1c0.1,0,0.2,0,0.4-0.1 s0.2-0.1,0.2-0.1L30.4,7.9L30.4,7.9z"></path> <path class="st1" d="M35.5,4.4c-0.3,0-0.6,0.1-0.8,0.2s-0.4,0.4-0.5,0.7h-0.1V4.5h-1v5.3h1V6.6c0-0.2,0.1-0.4,0.2-0.6 c0.1-0.2,0.3-0.3,0.4-0.4s0.4-0.2,0.7-0.2c0.1,0,0.2,0,0.3,0s0.2,0,0.2,0v-1c-0.1,0-0.1,0-0.2,0C35.6,4.4,35.5,4.4,35.5,4.4 L35.5,4.4z"></path> <path class="st1" d="M38.4,5.6c0.2-0.1,0.5-0.2,0.8-0.2c0.3,0,0.6,0.1,0.8,0.3s0.3,0.4,0.4,0.6h1c0-0.4-0.1-0.7-0.4-0.9 c-0.2-0.3-0.4-0.5-0.8-0.6c-0.3-0.1-0.7-0.2-1.1-0.2c-0.5,0-0.9,0.1-1.3,0.4c-0.4,0.2-0.7,0.6-0.9,1c-0.2,0.4-0.3,0.9-0.3,1.4 s0.1,1,0.3,1.4s0.5,0.7,0.9,1s0.8,0.4,1.3,0.4c0.4,0,0.8-0.1,1.1-0.2s0.6-0.4,0.8-0.6c0.2-0.3,0.3-0.6,0.3-0.9h-1 c0,0.2-0.1,0.4-0.2,0.5S39.9,8.9,39.7,9c-0.2,0.1-0.3,0.1-0.5,0.1c-0.3,0-0.6-0.1-0.8-0.2c-0.2-0.2-0.4-0.4-0.5-0.7s-0.2-0.6-0.2-1 s0.1-0.7,0.2-1C38,5.9,38.2,5.7,38.4,5.6L38.4,5.6z"></path> <path class="st1" d="M46.3,4.7c-0.3-0.1-0.6-0.2-1-0.2c-0.4,0-0.8,0.1-1,0.2s-0.4,0.4-0.6,0.7h-0.1V2.7h-1v7.1h1V6.7 c0-0.3,0.1-0.5,0.2-0.7c0.1-0.2,0.3-0.4,0.5-0.5c0.2-0.1,0.4-0.2,0.7-0.2c0.4,0,0.6,0.1,0.8,0.3s0.3,0.5,0.3,0.9v3.3h1V6.5 c0-0.5-0.1-0.8-0.2-1.1S46.6,4.8,46.3,4.7L46.3,4.7z"></path> <path class="st1" d="M53.8,2.7l-2.6,7.1h1.1L53,8h2.8l0.6,1.9h1.1L55,2.7H53.8L53.8,2.7z M53.4,7.1L54.4,4h0.1l1.1,3.1H53.4z"></path> <rect x="58.8" y="2.7" class="st1" width="1" height="7.1"></rect> <rect x="61.5" y="2.7" class="st1" width="1" height="7.1"></rect> <path class="st1" d="M64.7,2.5c-0.2,0-0.3,0.1-0.5,0.2s-0.2,0.3-0.2,0.4s0.1,0.3,0.2,0.4c0.1,0.1,0.3,0.2,0.5,0.2s0.3-0.1,0.5-0.2 c0.1-0.1,0.2-0.3,0.2-0.4s-0.1-0.3-0.2-0.4S64.9,2.5,64.7,2.5z"></path> <rect x="64.2" y="4.5" class="st1" width="1" height="5.3"></rect> <path class="st1" d="M70.4,4.8c-0.2-0.1-0.4-0.2-0.7-0.3c-0.2-0.1-0.5-0.1-0.7-0.1c-0.3,0-0.6,0.1-0.9,0.1S67.5,4.8,67.3,5 c-0.2,0.2-0.4,0.5-0.5,0.8l1,0.2c0.1-0.2,0.2-0.4,0.4-0.5c0.2-0.1,0.5-0.2,0.8-0.2s0.6,0.1,0.8,0.2S70,5.9,70,6.3v0 c0,0.1-0.1,0.2-0.1,0.3c-0.1,0.1-0.2,0.1-0.4,0.1s-0.5,0-0.8,0.1c-0.2,0-0.5,0.1-0.8,0.1c-0.2,0.1-0.5,0.1-0.7,0.3 c-0.2,0.1-0.4,0.3-0.5,0.5c-0.1,0.2-0.2,0.4-0.2,0.8c0,0.4,0.1,0.6,0.2,0.9s0.4,0.4,0.6,0.5c0.3,0.1,0.6,0.2,0.9,0.2 c0.3,0,0.6,0,0.8-0.1c0.2-0.1,0.4-0.2,0.5-0.3C69.9,9.4,70,9.3,70,9.1h0v0.7h1V6.3c0-0.4-0.1-0.7-0.2-0.9 C70.8,5.1,70.6,4.9,70.4,4.8z M70,7.9c0,0.2-0.1,0.4-0.2,0.6S69.6,8.9,69.4,9c-0.2,0.1-0.4,0.2-0.7,0.2S68.1,9.1,67.9,9 c-0.2-0.1-0.3-0.3-0.3-0.6c0-0.2,0.1-0.3,0.1-0.5c0.1-0.1,0.2-0.2,0.4-0.3s0.4-0.1,0.6-0.1c0.1,0,0.2,0,0.3,0c0.1,0,0.3,0,0.4-0.1 c0.1,0,0.3,0,0.4-0.1c0.1,0,0.2-0.1,0.2-0.1L70,7.9L70,7.9z"></path> <path class="st1" d="M76.3,4.7c-0.3-0.1-0.6-0.2-1-0.2c-0.4,0-0.7,0.1-1,0.3c-0.3,0.2-0.5,0.4-0.6,0.7h-0.1V4.5h-1v5.4h1V6.7 c0-0.3,0.1-0.5,0.2-0.7c0.1-0.2,0.3-0.4,0.4-0.5c0.2-0.1,0.4-0.2,0.6-0.2c0.4,0,0.6,0.1,0.8,0.3s0.3,0.5,0.3,0.9v3.3h1V6.5 c0-0.4-0.1-0.8-0.2-1.1C76.8,5.1,76.6,4.8,76.3,4.7L76.3,4.7z"></path> <path class="st1" d="M80.3,5.6c0.2-0.1,0.5-0.2,0.8-0.2c0.3,0,0.6,0.1,0.8,0.3s0.3,0.4,0.4,0.6h1c0-0.4-0.1-0.7-0.4-0.9 c-0.2-0.3-0.4-0.5-0.8-0.6c-0.3-0.1-0.7-0.2-1.1-0.2c-0.5,0-0.9,0.1-1.3,0.4c-0.4,0.2-0.7,0.6-0.9,1c-0.2,0.4-0.3,0.9-0.3,1.4 s0.1,1,0.3,1.4s0.5,0.7,0.9,1s0.8,0.4,1.3,0.4c0.4,0,0.8-0.1,1.1-0.2s0.6-0.4,0.8-0.6c0.2-0.3,0.3-0.6,0.3-0.9h-1 c0,0.2-0.1,0.4-0.2,0.5S81.8,8.9,81.6,9c-0.2,0.1-0.3,0.1-0.5,0.1c-0.3,0-0.6-0.1-0.8-0.2c-0.2-0.2-0.4-0.4-0.5-0.7 c-0.1-0.3-0.2-0.6-0.2-1s0.1-0.7,0.2-1C79.9,5.9,80.1,5.7,80.3,5.6L80.3,5.6z"></path> <path class="st1" d="M89.2,7.1c0-0.5-0.1-0.9-0.2-1.2c-0.1-0.3-0.3-0.6-0.5-0.8c-0.2-0.2-0.5-0.4-0.8-0.5s-0.6-0.1-0.9-0.1 c-0.5,0-0.9,0.1-1.3,0.4c-0.4,0.2-0.7,0.6-0.9,1c-0.2,0.4-0.3,0.9-0.3,1.5s0.1,1,0.3,1.5c0.2,0.4,0.5,0.7,0.9,1S86.4,10,87,10 c0.4,0,0.7-0.1,1-0.2c0.3-0.1,0.6-0.3,0.8-0.5s0.3-0.5,0.4-0.8l-1-0.2c-0.1,0.2-0.1,0.3-0.3,0.4C87.8,8.9,87.7,9,87.5,9 S87.2,9.1,87,9.1c-0.3,0-0.6-0.1-0.8-0.2c-0.2-0.1-0.4-0.3-0.5-0.6c-0.1-0.2-0.2-0.5-0.2-0.8h3.8V7.1L89.2,7.1z M85.4,6.7 c0-0.2,0.1-0.5,0.2-0.6c0.1-0.2,0.3-0.4,0.5-0.6s0.5-0.2,0.8-0.2c0.3,0,0.5,0.1,0.7,0.2C87.8,5.6,88,5.8,88.1,6 c0.1,0.2,0.2,0.5,0.2,0.7L85.4,6.7L85.4,6.7z"></path> <polygon class="st1" points="-122.2,10 -122.2,-10 -108.1,-10 -108.1,-5.9 -117.5,-5.9 -117.5,-2 -109.5,-2 -109.5,1.7 -117.5,1.7 -117.5,5.9 -108,5.9 -108,10 "></polygon> <path class="st0" d="M-101-1v-4.1h7.9c0.3,0,0.6,0.1,0.8,0.3c0.3,0.2,0.5,0.4,0.7,0.8s0.2,0.7,0.2,1c0,0.4-0.1,0.7-0.2,1 c-0.2,0.3-0.4,0.6-0.7,0.7C-92.6-1.1-92.9-1-93.2-1C-93.2-1-101-1-101-1z"></path> <path class="st0" d="M-84.1,10L-88,3.6c1-0.6,1.8-1.5,2.4-2.6c0.7-1.2,1.1-2.6,1.1-4.1s-0.4-2.9-1.1-4.1c-0.7-1.2-1.7-2.1-2.9-2.8 h12c2.2,0,4.1,0.4,5.7,1.3c1.6,0.8,2.9,2,3.8,3.5S-65.7-2-65.7,0s-0.5,3.7-1.3,5.2c-0.9,1.5-2.2,2.7-3.8,3.5 c-1.6,0.8-3.5,1.3-5.7,1.3C-76.4,10-84.1,10-84.1,10z M-80.2,5.9h3.5c1.9,0,3.5-0.5,4.6-1.5c1.1-1,1.6-2.5,1.6-4.3S-71-3.2-72-4.3 s-2.6-1.6-4.6-1.6h-3.5V5.9L-80.2,5.9z"></path> <polygon class="st0" points="-101,10 -101,4.9 -94.8,4.9 -92,10 "></polygon> <polygon class="st1" points="-62.6,10 -62.6,-10 -48.5,-10 -48.5,-5.9 -57.8,-5.9 -57.8,-2 -49.8,-2 -49.8,1.7 -57.8,1.7 -57.8,5.9 -48.3,5.9 -48.3,10 "></polygon> <path class="st1" d="M-13-10h-4.7l-6.6,16.2h-1.3c-0.9,0-1.6-0.1-2.2-0.3c-0.6-0.2-1.1-0.5-1.6-0.9c-0.4-0.4-0.8-0.9-1.1-1.6 L-30.6,3l0.5-0.2c2.2-1.2,3.2-3.2,3.2-5.9c0-1.3-0.3-2.5-0.9-3.5s-1.5-1.8-2.6-2.4c-1.1-0.6-2.4-0.9-3.8-0.9h-10.1v20h4.8V4.1h1.4 c0.3,0,2,0,2.5,0h0.4l0.2,0.3c0.9,2.1,2,3.5,3.4,4.3c1.4,0.8,3,1.3,4.6,1.3h6.2l1.1-2.9h8.7l1.1,2.9h5L-13-10z M-32-1.5 c-0.2,0.5-0.6,0.9-1,1.1c-0.4,0.3-0.9,0.4-1.4,0.4h-5v-6h5c0.5,0,1,0.2,1.4,0.4c0.4,0.3,0.8,0.6,1,1.1c0.2,0.4,0.4,0.9,0.4,1.3 C-31.7-2.5-31.8-2-32-1.5L-32-1.5z M-18.3,3.4l2.2-5.8l0.3-1.2h0.9l0.2,1.2l2.2,5.8H-18.3L-18.3,3.4z"></path> </symbol> <g id="Capa_1-2"> <g> <defs> <rect id="SVGID_1_" y="0" width="244.4" height="20"></rect> </defs> <clipPath id="SVGID_00000109734931080644133880000003931126714320329354_"> <use xlink:href="#SVGID_1_" style="overflow:visible;"></use> </clipPath> <g style="clip-path:url(#SVGID_00000109734931080644133880000003931126714320329354_);"> <use xlink:href="#Logo_petit_negatiu" width="244.4" height="20" x="-122.2" y="-10" transform="matrix(1 0 0 1 122.225 10.01)" style="overflow:visible;"></use> </g> </g> </g> </svg>